<svg width="512" height="512" viewBox="0 0 512 512" xmlns="http://www.w3.org/2000/svg">
  <rect x="0" y="0" width="512" height="512" rx="112" fill="#0a1428"/>

  <g transform="translate(256, 256)">
    <path d="M -20 -20 L -112 -112 L -96 -128 L 0 -40 Z" fill="#f4b860"/>
    <path d="M 20 -20 L 112 -112 L 128 -96 L 40 0 Z" fill="#f4b860"/>
    <path d="M -20 20 L -112 112 L -128 96 L -40 0 Z" fill="#f4b860"/>
    <path d="M 20 20 L 112 112 L 96 128 L 0 40 Z" fill="#f4b860"/>

    <rect x="-44" y="-44" width="88" height="88" rx="16" fill="#f4b860"/>
    <circle cx="0" cy="0" r="20" fill="#0a1428"/>
    <circle cx="0" cy="0" r="10" fill="#f4b860"/>
    <circle cx="0" cy="0" r="4" fill="#0a1428"/>

    <g transform="translate(-112, -112)">
      <circle r="36" fill="#0a1428" stroke="#f4b860" stroke-width="6"/>
      <circle r="8" fill="#f4b860"/>
    </g>
    <g transform="translate(112, -112)">
      <circle r="36" fill="#0a1428" stroke="#f4b860" stroke-width="6"/>
      <circle r="8" fill="#f4b860"/>
    </g>
    <g transform="translate(-112, 112)">
      <circle r="36" fill="#0a1428" stroke="#f4b860" stroke-width="6"/>
      <circle r="8" fill="#f4b860"/>
    </g>
    <g transform="translate(112, 112)">
      <circle r="36" fill="#0a1428" stroke="#f4b860" stroke-width="6"/>
      <circle r="8" fill="#f4b860"/>
    </g>
  </g>
</svg>
