<svg width="512" height="512" viewBox="0 0 512 512" xmlns="http://www.w3.org/2000/svg">
  <defs>
    <linearGradient id="auroreIcon" x1="0" y1="0" x2="0" y2="1">
      <stop offset="0%" stop-color="#1a2744"/>
      <stop offset="60%" stop-color="#c4633f"/>
      <stop offset="100%" stop-color="#f4b860"/>
    </linearGradient>
  </defs>

  <rect x="0" y="0" width="512" height="512" rx="112" fill="url(#auroreIcon)"/>

  <g transform="translate(256, 256)">
    <path d="M -20 -20 L -112 -112 L -96 -128 L 0 -40 Z" fill="#0a1428"/>
    <path d="M 20 -20 L 112 -112 L 128 -96 L 40 0 Z" fill="#0a1428"/>
    <path d="M -20 20 L -112 112 L -128 96 L -40 0 Z" fill="#0a1428"/>
    <path d="M 20 20 L 112 112 L 96 128 L 0 40 Z" fill="#0a1428"/>

    <rect x="-44" y="-44" width="88" height="88" rx="16" fill="#0a1428" stroke="#f4b860" stroke-width="3"/>
    <circle cx="0" cy="0" r="20" fill="#1a2744" stroke="#f4b860" stroke-width="3"/>
    <circle cx="0" cy="0" r="10" fill="#f4b860"/>
    <circle cx="0" cy="0" r="4" fill="#0a1428"/>

    <polygon points="0,-72 4,-60 16,-60 6,-52 10,-40 0,-46 -10,-40 -6,-52 -16,-60 -4,-60" fill="#f4b860"/>

    <g transform="translate(-112, -112)">
      <circle r="36" fill="#0a1428" stroke="#f4b860" stroke-width="4"/>
      <circle r="10" fill="#f4b860"/>
      <ellipse cx="0" cy="0" rx="36" ry="6" fill="#f4b860" opacity="0.4" transform="rotate(30)"/>
      <ellipse cx="0" cy="0" rx="36" ry="6" fill="#f4b860" opacity="0.4" transform="rotate(-30)"/>
    </g>
    <g transform="translate(112, -112)">
      <circle r="36" fill="#0a1428" stroke="#f4b860" stroke-width="4"/>
      <circle r="10" fill="#f4b860"/>
      <ellipse cx="0" cy="0" rx="36" ry="6" fill="#f4b860" opacity="0.4" transform="rotate(45)"/>
      <ellipse cx="0" cy="0" rx="36" ry="6" fill="#f4b860" opacity="0.4" transform="rotate(-45)"/>
    </g>
    <g transform="translate(-112, 112)">
      <circle r="36" fill="#0a1428" stroke="#f4b860" stroke-width="4"/>
      <circle r="10" fill="#f4b860"/>
      <ellipse cx="0" cy="0" rx="36" ry="6" fill="#f4b860" opacity="0.4" transform="rotate(60)"/>
      <ellipse cx="0" cy="0" rx="36" ry="6" fill="#f4b860" opacity="0.4" transform="rotate(-60)"/>
    </g>
    <g transform="translate(112, 112)">
      <circle r="36" fill="#0a1428" stroke="#f4b860" stroke-width="4"/>
      <circle r="10" fill="#f4b860"/>
      <ellipse cx="0" cy="0" rx="36" ry="6" fill="#f4b860" opacity="0.4" transform="rotate(15)"/>
      <ellipse cx="0" cy="0" rx="36" ry="6" fill="#f4b860" opacity="0.4" transform="rotate(-15)"/>
    </g>
  </g>
</svg>
