<svg width="600" height="200" viewBox="0 0 600 200" xmlns="http://www.w3.org/2000/svg">
  <defs>
    <linearGradient id="aurore" x1="0" y1="0" x2="0" y2="1">
      <stop offset="0%" stop-color="#0f1d3a"/>
      <stop offset="45%" stop-color="#8a3a2e"/>
      <stop offset="75%" stop-color="#e08a4a"/>
      <stop offset="100%" stop-color="#f5c878"/>
    </linearGradient>
  </defs>

  <!-- Cercle aurore -->
  <g transform="translate(20, 20)">
    <circle cx="80" cy="80" r="76" fill="url(#aurore)" stroke="#0a1428" stroke-width="2"/>
    <line x1="12" y1="96" x2="148" y2="96" stroke="#0a1428" stroke-width="0.6" opacity="0.35"/>
    <line x1="32" y1="102" x2="128" y2="102" stroke="#fff" stroke-width="0.4" opacity="0.25"/>

    <!-- Drone -->
    <g transform="translate(80, 72)">
      <path d="M -5 -5 L -32 -32 L -27 -37 L 0 -10 Z" fill="#0a1428"/>
      <path d="M 5 -5 L 32 -32 L 37 -27 L 10 0 Z" fill="#0a1428"/>
      <path d="M -5 5 L -32 32 L -37 27 L -10 0 Z" fill="#0a1428"/>
      <path d="M 5 5 L 32 32 L 27 37 L 0 10 Z" fill="#0a1428"/>

      <rect x="-12" y="-12" width="24" height="24" rx="4" fill="#0a1428" stroke="#f4b860" stroke-width="0.8"/>
      <circle cx="0" cy="0" r="5" fill="#1a2744" stroke="#f4b860" stroke-width="1"/>
      <circle cx="0" cy="0" r="2.5" fill="#f4b860"/>
      <circle cx="0" cy="0" r="1" fill="#0a1428"/>

      <polygon points="0,-17 1,-14 4,-14 1.5,-12 2.5,-9 0,-10.5 -2.5,-9 -1.5,-12 -4,-14 -1,-14" fill="#f4b860"/>

      <g transform="translate(-32, -32)">
        <circle r="10" fill="#0a1428" stroke="#f4b860" stroke-width="1.2"/>
        <circle r="2.5" fill="#f4b860"/>
        <ellipse cx="0" cy="0" rx="10" ry="1.8" fill="#f4b860" opacity="0.35" transform="rotate(30)"/>
        <ellipse cx="0" cy="0" rx="10" ry="1.8" fill="#f4b860" opacity="0.35" transform="rotate(-30)"/>
      </g>
      <g transform="translate(32, -32)">
        <circle r="10" fill="#0a1428" stroke="#f4b860" stroke-width="1.2"/>
        <circle r="2.5" fill="#f4b860"/>
        <ellipse cx="0" cy="0" rx="10" ry="1.8" fill="#f4b860" opacity="0.35" transform="rotate(45)"/>
        <ellipse cx="0" cy="0" rx="10" ry="1.8" fill="#f4b860" opacity="0.35" transform="rotate(-45)"/>
      </g>
      <g transform="translate(-32, 32)">
        <circle r="10" fill="#0a1428" stroke="#f4b860" stroke-width="1.2"/>
        <circle r="2.5" fill="#f4b860"/>
        <ellipse cx="0" cy="0" rx="10" ry="1.8" fill="#f4b860" opacity="0.35" transform="rotate(60)"/>
        <ellipse cx="0" cy="0" rx="10" ry="1.8" fill="#f4b860" opacity="0.35" transform="rotate(-60)"/>
      </g>
      <g transform="translate(32, 32)">
        <circle r="10" fill="#0a1428" stroke="#f4b860" stroke-width="1.2"/>
        <circle r="2.5" fill="#f4b860"/>
        <ellipse cx="0" cy="0" rx="10" ry="1.8" fill="#f4b860" opacity="0.35" transform="rotate(15)"/>
        <ellipse cx="0" cy="0" rx="10" ry="1.8" fill="#f4b860" opacity="0.35" transform="rotate(-15)"/>
      </g>

      <circle cx="-32" cy="-39" r="1" fill="#fff" opacity="0.9"/>
      <circle cx="32" cy="-39" r="1" fill="#fff" opacity="0.9"/>
      <circle cx="-32" cy="39" r="1" fill="#ff6b4a" opacity="0.8"/>
      <circle cx="32" cy="39" r="1" fill="#ff6b4a" opacity="0.8"/>
    </g>
  </g>

  <!-- Wordmark -->
  <g transform="translate(220, 80)">
    <text x="0" y="0" font-family="-apple-system, BlinkMacSystemFont, 'Segoe UI', sans-serif" font-size="42" font-weight="500" fill="#0a1428" letter-spacing="-1.5">Aube<tspan font-weight="400">Pilot</tspan></text>
    <text x="0" y="22" font-family="-apple-system, BlinkMacSystemFont, 'Segoe UI', sans-serif" font-size="10" font-weight="500" fill="#5a6378" letter-spacing="3.5">RÉSEAU PILOTE FRANCOPHONE</text>
    <line x1="0" y1="36" x2="50" y2="36" stroke="#c4633f" stroke-width="2"/>
    <text x="0" y="54" font-family="Georgia, serif" font-size="13" font-style="italic" fill="#7a8294">Le ciel n'a pas de frontière</text>
  </g>
</svg>
